<?xml version="1.0" encoding="utf-8"?>
<!-- Generator: Adobe Illustrator 25.4.8, SVG Export Plug-In . SVG Version: 6.00 Build 0)  -->
<svg version="1.1" id="Layer_1" xmlns="http://www.w3.org/2000/svg" xmlns:xlink="http://www.w3.org/1999/xlink" x="0px" y="0px"
	 viewBox="0 0 1196 257" style="enable-background:new 0 0 1196 257;" xml:space="preserve">
<style type="text/css">
	.st0{fill:#6F7271;}
	.st1{fill:url(#SVGID_1_);}
	.st2{fill:#C6A166;}
	.st3{fill:#FF4571;}
</style>
<g>
	<g>
		<path class="st0" d="M95.5,130.5c-0.6-0.6-1-1.5-1-2.7v-4.5h1.9v4.4c0,1.4,0.6,2.1,1.8,2.1c0.6,0,1-0.2,1.3-0.5s0.5-0.9,0.5-1.6
			v-4.4h1.8v4.5c0,1.2-0.3,2.1-1,2.7c-0.6,0.6-1.5,0.9-2.7,0.9C97.1,131.5,96.2,131.2,95.5,130.5z"/>
		<path class="st0" d="M111,123.3v8h-1.5l-4-4.9v4.9h-1.8v-8h1.5l4,4.9v-4.9C109.2,123.3,111,123.3,111,123.3z"/>
		<path class="st0" d="M112.9,123.3h1.9v8h-1.9V123.3z"/>
		<path class="st0" d="M124.3,123.3l-3.5,8H119l-3.5-8h2l2.4,5.7l2.5-5.7H124.3z"/>
		<path class="st0" d="M131.2,129.9v1.5H125v-8h6.1v1.5h-4.2v1.7h3.7v1.4h-3.7v1.9H131.2z"/>
		<path class="st0" d="M137.7,131.3l-1.5-2.2h-0.1h-1.6v2.2h-1.9v-8h3.5c0.7,0,1.3,0.1,1.8,0.4c0.5,0.2,0.9,0.6,1.2,1
			s0.4,0.9,0.4,1.5s-0.1,1.1-0.4,1.5c-0.3,0.4-0.7,0.8-1.2,1l1.8,2.6L137.7,131.3L137.7,131.3z M137.3,125.2
			c-0.3-0.2-0.7-0.4-1.3-0.4h-1.5v2.8h1.5c0.6,0,1-0.1,1.3-0.4c0.3-0.2,0.4-0.6,0.4-1C137.7,125.8,137.6,125.4,137.3,125.2z"/>
		<path class="st0" d="M141.8,131.2c-0.6-0.2-1.1-0.4-1.4-0.7l0.6-1.4c0.3,0.3,0.8,0.5,1.2,0.6c0.5,0.2,0.9,0.2,1.4,0.2
			s0.9-0.1,1.2-0.2c0.3-0.2,0.4-0.4,0.4-0.6c0-0.2-0.1-0.3-0.2-0.5c-0.1-0.1-0.3-0.2-0.6-0.3c-0.2-0.1-0.5-0.2-0.9-0.3
			c-0.6-0.1-1.1-0.3-1.5-0.4s-0.7-0.4-1-0.7c-0.3-0.3-0.4-0.7-0.4-1.3c0-0.5,0.1-0.9,0.4-1.3c0.3-0.4,0.6-0.7,1.1-0.9
			c0.5-0.2,1.1-0.3,1.9-0.3c0.5,0,1,0.1,1.5,0.2s0.9,0.3,1.3,0.5l-0.6,1.4c-0.7-0.4-1.5-0.6-2.2-0.6c-0.5,0-0.9,0.1-1.1,0.3
			c-0.2,0.2-0.4,0.4-0.4,0.7c0,0.3,0.1,0.5,0.4,0.6c0.3,0.1,0.7,0.3,1.3,0.4s1.1,0.3,1.5,0.4s0.7,0.4,1,0.7c0.3,0.3,0.4,0.7,0.4,1.3
			c0,0.5-0.1,0.9-0.4,1.3c-0.3,0.4-0.6,0.7-1.1,0.9s-1.1,0.3-1.9,0.3C143,131.5,142.4,131.4,141.8,131.2z"/>
		<path class="st0" d="M148.3,123.3h1.9v8h-1.9V123.3z"/>
		<path class="st0" d="M152.1,123.3h3.6c0.9,0,1.6,0.2,2.3,0.5s1.2,0.8,1.6,1.4c0.4,0.6,0.6,1.3,0.6,2.1c0,0.8-0.2,1.5-0.6,2.1
			c-0.4,0.6-0.9,1.1-1.6,1.4c-0.7,0.3-1.4,0.5-2.3,0.5h-3.6V123.3z M155.6,129.8c0.8,0,1.4-0.2,1.9-0.7c0.5-0.4,0.7-1,0.7-1.8
			s-0.2-1.4-0.7-1.8s-1.1-0.7-1.9-0.7h-1.7v5H155.6z"/>
		<path class="st0" d="M166.7,129.6H163l-0.7,1.7h-1.9l3.6-8h1.8l3.6,8h-1.9L166.7,129.6z M166.1,128.2l-1.3-3.1l-1.3,3.1H166.1z"/>
		<path class="st0" d="M170.2,123.3h3.6c0.9,0,1.6,0.2,2.3,0.5s1.2,0.8,1.6,1.4c0.4,0.6,0.6,1.3,0.6,2.1c0,0.8-0.2,1.5-0.6,2.1
			c-0.4,0.6-0.9,1.1-1.6,1.4c-0.7,0.3-1.4,0.5-2.3,0.5h-3.6V123.3z M173.7,129.8c0.8,0,1.4-0.2,1.9-0.7c0.5-0.4,0.7-1,0.7-1.8
			s-0.2-1.4-0.7-1.8s-1.1-0.7-1.9-0.7H172v5H173.7z"/>
		<path class="st0" d="M188.1,129.6h-3.7l-0.7,1.7h-1.9l3.6-8h1.8l3.6,8h-1.9L188.1,129.6z M187.5,128.2l-1.3-3.1l-1.3,3.1H187.5z"
			/>
		<path class="st0" d="M198.6,127.9c0.3,0.3,0.4,0.8,0.4,1.3c0,0.7-0.3,1.2-0.8,1.6c-0.5,0.4-1.3,0.6-2.4,0.6h-4.1v-8h3.9
			c1,0,1.7,0.2,2.2,0.6s0.8,0.9,0.8,1.5c0,0.4-0.1,0.7-0.3,1s-0.4,0.5-0.8,0.7C198,127.3,198.3,127.6,198.6,127.9z M193.5,124.7v1.9
			h1.8c0.5,0,0.8-0.1,1-0.2c0.2-0.2,0.4-0.4,0.4-0.7s-0.1-0.5-0.4-0.7c-0.2-0.2-0.6-0.2-1-0.2h-1.8V124.7z M196.7,129.7
			c0.2-0.2,0.4-0.4,0.4-0.7c0-0.7-0.5-1-1.5-1h-2.2v2h2.2C196.1,129.9,196.5,129.9,196.7,129.7z"/>
		<path class="st0" d="M200.4,123.3h1.9v8h-1.9V123.3z"/>
		<path class="st0" d="M210.3,129.9v1.5h-6.2v-8h6.1v1.5H206v1.7h3.7v1.4H206v1.9H210.3z"/>
		<path class="st0" d="M216.9,131.3l-1.5-2.2h-0.1h-1.6v2.2h-1.9v-8h3.5c0.7,0,1.3,0.1,1.8,0.4c0.5,0.2,0.9,0.6,1.2,1
			s0.4,0.9,0.4,1.5s-0.1,1.1-0.4,1.5c-0.3,0.4-0.7,0.8-1.2,1l1.8,2.6L216.9,131.3L216.9,131.3z M216.4,125.2
			c-0.3-0.2-0.7-0.4-1.3-0.4h-1.5v2.8h1.5c0.6,0,1-0.1,1.3-0.4c0.3-0.2,0.4-0.6,0.4-1C216.9,125.8,216.7,125.4,216.4,125.2z"/>
		<path class="st0" d="M221.7,124.8h-2.6v-1.5h7v1.5h-2.6v6.5h-1.9v-6.5H221.7z"/>
		<path class="st0" d="M232,129.6h-3.7l-0.7,1.7h-1.9l3.6-8h1.8l3.6,8h-1.9L232,129.6z M231.4,128.2l-1.3-3.1l-1.3,3.1H231.4z"/>
		<path class="st0" d="M242.6,128.5v2.8h-1.9v-2.9l-3.1-5.1h2l2.1,3.6l2.1-3.6h1.8L242.6,128.5z"/>
		<path class="st0" d="M101,143.3h-3.7l-0.7,1.7h-1.9l3.6-8h1.8l3.6,8h-1.9L101,143.3z M100.5,141.9l-1.3-3.1l-1.3,3.1H100.5z"/>
		<path class="st0" d="M107.8,137.1h3.6c0.9,0,1.6,0.2,2.3,0.5c0.7,0.3,1.2,0.8,1.6,1.4c0.4,0.6,0.6,1.3,0.6,2.1s-0.2,1.5-0.6,2.1
			s-0.9,1.1-1.6,1.4c-0.7,0.3-1.4,0.5-2.3,0.5h-3.6V137.1z M111.3,143.5c0.8,0,1.4-0.2,1.9-0.7c0.5-0.4,0.7-1,0.7-1.8
			s-0.2-1.4-0.7-1.8c-0.5-0.4-1.1-0.7-1.9-0.7h-1.7v5H111.3z"/>
		<path class="st0" d="M117.2,137.1h1.9v8h-1.9V137.1z"/>
		<path class="st0" d="M121.8,144.9c-0.6-0.2-1.1-0.4-1.4-0.7l0.6-1.4c0.3,0.3,0.8,0.5,1.2,0.6c0.5,0.2,0.9,0.2,1.4,0.2
			s0.9-0.1,1.2-0.2c0.3-0.2,0.4-0.4,0.4-0.6c0-0.2-0.1-0.3-0.2-0.5c-0.1-0.1-0.3-0.2-0.6-0.3c-0.2-0.1-0.5-0.2-0.9-0.3
			c-0.6-0.1-1.1-0.3-1.5-0.4c-0.4-0.1-0.7-0.4-1-0.7s-0.4-0.7-0.4-1.3c0-0.5,0.1-0.9,0.4-1.3s0.6-0.7,1.1-0.9s1.1-0.3,1.9-0.3
			c0.5,0,1,0.1,1.5,0.2c0.5,0.1,0.9,0.3,1.3,0.5l-0.6,1.4c-0.7-0.4-1.5-0.6-2.2-0.6c-0.5,0-0.9,0.1-1.1,0.3s-0.4,0.4-0.4,0.7
			s0.1,0.5,0.4,0.6s0.7,0.3,1.3,0.4c0.6,0.1,1.1,0.3,1.5,0.4c0.4,0.1,0.7,0.4,1,0.7s0.4,0.7,0.4,1.3c0,0.5-0.1,0.9-0.4,1.3
			c-0.3,0.4-0.6,0.7-1.1,0.9s-1.1,0.3-1.9,0.3C123,145.2,122.3,145.1,121.8,144.9z"/>
		<path class="st0" d="M129.8,138.6h-2.6v-1.5h7v1.5h-2.6v6.5h-1.9L129.8,138.6L129.8,138.6z"/>
		<path class="st0" d="M140.1,143.3h-3.7l-0.7,1.7h-1.9l3.6-8h1.8l3.6,8h-1.9L140.1,143.3z M139.5,141.9l-1.3-3.1l-1.3,3.1H139.5z"
			/>
		<path class="st0" d="M150.9,137.1v8h-1.5l-4-4.9v4.9h-1.8v-8h1.5l4,4.9v-4.9H150.9z"/>
		<path class="st0" d="M154.4,144.7c-0.7-0.4-1.2-0.8-1.6-1.5c-0.4-0.6-0.6-1.3-0.6-2.1s0.2-1.5,0.6-2.1c0.4-0.6,0.9-1.1,1.6-1.5
			c0.7-0.4,1.4-0.5,2.2-0.5c0.7,0,1.3,0.1,1.9,0.4c0.6,0.2,1,0.6,1.4,1.1l-1.2,1.1c-0.5-0.6-1.2-0.9-2-0.9c-0.5,0-0.9,0.1-1.3,0.3
			c-0.4,0.2-0.7,0.5-0.9,0.9s-0.3,0.8-0.3,1.3s0.1,0.9,0.3,1.3c0.2,0.4,0.5,0.7,0.9,0.9s0.8,0.3,1.3,0.3c0.8,0,1.5-0.3,2-0.9
			l1.2,1.1c-0.4,0.5-0.9,0.8-1.4,1.1s-1.2,0.4-1.9,0.4C155.8,145.2,155.1,145,154.4,144.7z"/>
		<path class="st0" d="M161.2,137.1h1.9v8h-1.9V137.1z"/>
		<path class="st0" d="M170.2,143.3h-3.7l-0.7,1.7h-1.9l3.6-8h1.8l3.6,8H171L170.2,143.3z M169.6,141.9l-1.3-3.1l-1.3,3.1H169.6z"/>
		<path class="st0" d="M176.9,137.1h3.6c0.9,0,1.6,0.2,2.3,0.5s1.2,0.8,1.6,1.4c0.4,0.6,0.6,1.3,0.6,2.1s-0.2,1.5-0.6,2.1
			c-0.4,0.6-0.9,1.1-1.6,1.4c-0.7,0.3-1.4,0.5-2.3,0.5h-3.6V137.1z M180.5,143.5c0.8,0,1.4-0.2,1.9-0.7c0.5-0.4,0.7-1,0.7-1.8
			s-0.2-1.4-0.7-1.8c-0.5-0.4-1.1-0.7-1.9-0.7h-1.7v5H180.5z"/>
		<path class="st0" d="M192.6,143.6v1.5h-6.2v-8h6.1v1.5h-4.2v1.7h3.7v1.4h-3.7v1.9L192.6,143.6L192.6,143.6z"/>
		<path class="st0" d="M204.6,145.1v-4.8l-2.4,4h-0.8l-2.3-3.9v4.7h-1.7v-8h1.5l3,5l3-5h1.5v8H204.6z"/>
		<path class="st0" d="M214.4,143.6v1.5h-6.2v-8h6.1v1.5h-4.2v1.7h3.7v1.4h-3.7v1.9L214.4,143.6L214.4,143.6z M211.8,134.8h1.9
			l-2.1,1.6h-1.4L211.8,134.8z"/>
		<path class="st0" d="M220.9,145.1l-1.9-2.8l-1.9,2.8H215l3-4.1l-2.8-3.9h2.1l1.8,2.6l1.8-2.6h2l-2.8,3.9l3,4.1H220.9z"/>
		<path class="st0" d="M223.7,137.1h1.9v8h-1.9V137.1z"/>
		<path class="st0" d="M229.1,144.7c-0.7-0.4-1.2-0.8-1.6-1.5c-0.4-0.6-0.6-1.3-0.6-2.1s0.2-1.5,0.6-2.1c0.4-0.6,0.9-1.1,1.6-1.5
			c0.7-0.4,1.4-0.5,2.2-0.5c0.7,0,1.3,0.1,1.9,0.4c0.6,0.2,1,0.6,1.4,1.1l-1.2,1.1c-0.5-0.6-1.2-0.9-2-0.9c-0.5,0-0.9,0.1-1.3,0.3
			c-0.4,0.2-0.7,0.5-0.9,0.9s-0.3,0.8-0.3,1.3s0.1,0.9,0.3,1.3c0.2,0.4,0.5,0.7,0.9,0.9s0.8,0.3,1.3,0.3c0.8,0,1.5-0.3,2-0.9
			l1.2,1.1c-0.4,0.5-0.9,0.8-1.4,1.1c-0.6,0.2-1.2,0.4-1.9,0.4C230.5,145.2,229.8,145,229.1,144.7z"/>
		<path class="st0" d="M237.3,144.7c-0.7-0.4-1.2-0.9-1.6-1.5c-0.4-0.6-0.6-1.3-0.6-2.1s0.2-1.5,0.6-2.1c0.4-0.6,0.9-1.1,1.6-1.5
			c0.7-0.4,1.4-0.5,2.2-0.5s1.6,0.2,2.2,0.5c0.7,0.4,1.2,0.9,1.6,1.5c0.4,0.6,0.6,1.3,0.6,2.1s-0.2,1.5-0.6,2.1
			c-0.4,0.6-0.9,1.1-1.6,1.5c-0.7,0.4-1.4,0.5-2.2,0.5S238,145,237.3,144.7z M240.8,143.3c0.4-0.2,0.7-0.5,0.9-0.9s0.3-0.8,0.3-1.3
			s-0.1-0.9-0.3-1.3c-0.2-0.4-0.5-0.7-0.9-0.9s-0.8-0.3-1.3-0.3s-0.9,0.1-1.3,0.3c-0.4,0.2-0.7,0.5-0.9,0.9s-0.3,0.8-0.3,1.3
			s0.1,0.9,0.3,1.3c0.2,0.4,0.5,0.7,0.9,0.9s0.8,0.3,1.3,0.3S240.5,143.5,240.8,143.3z"/>
	</g>
	<g>
		<path class="st0" d="M75,106.8c-2.9-2.8-4.3-6.8-4.3-11.9V75.7h9.8v18.9c0,5.6,2.2,8.3,6.6,8.3s6.5-2.8,6.5-8.3V75.7h9.7v19.2
			c0,5.2-1.4,9.1-4.3,11.9s-6.9,4.2-12,4.2S77.9,109.6,75,106.8z"/>
		<path class="st0" d="M135.1,86c2,2,3,5,3,9v15.4h-9.4V96.5c0-3.7-1.5-5.5-4.4-5.5c-1.6,0-2.9,0.5-3.9,1.6s-1.5,2.6-1.5,4.8v13
			h-9.4V83.5h9v2.9c1.1-1.1,2.3-1.9,3.8-2.5s3-0.9,4.8-0.9C130.4,83,133,84,135.1,86z"/>
		<path class="st0" d="M167.7,103.6H153l-2.7,6.7h-10l15.3-34.7h9.7l15.4,34.7h-10.2L167.7,103.6z M164.8,96.4l-4.5-11.1l-4.5,11.1
			H164.8z"/>
		<path class="st0" d="M183.4,75.7h16.4c3.8,0,7.2,0.7,10.1,2.1c2.9,1.4,5.2,3.4,6.8,6s2.4,5.7,2.4,9.2s-0.8,6.6-2.4,9.2
			c-1.6,2.6-3.9,4.6-6.8,6c-2.9,1.4-6.3,2.1-10.1,2.1h-16.4V75.7z M199.4,102.5c3,0,5.4-0.8,7.2-2.5s2.7-4,2.7-7s-0.9-5.3-2.7-7
			s-4.2-2.5-7.2-2.5h-6.2v19H199.4z"/>
		<path class="st0" d="M255.7,110.4L255.6,92l-8.9,15h-4.4l-8.9-14.5v17.9h-9.1V75.7h8.1l12.2,20l11.9-20h8.1l0.1,34.7
			C264.7,110.4,255.7,110.4,255.7,110.4z"/>
	</g>
	
		<linearGradient id="SVGID_1_" gradientUnits="userSpaceOnUse" x1="45.41" y1="129.8219" x2="305.9916" y2="129.8219" gradientTransform="matrix(1 0 0 -1 0 258)">
		<stop  offset="0" style="stop-color:#002217"/>
		<stop  offset="4.653746e-02" style="stop-color:#0F3226"/>
		<stop  offset="0.1227" style="stop-color:#204437"/>
		<stop  offset="0.2129" style="stop-color:#2D5144"/>
		<stop  offset="0.3294" style="stop-color:#34594B"/>
		<stop  offset="0.5667" style="stop-color:#365B4D"/>
		<stop  offset="0.7531" style="stop-color:#34594B"/>
		<stop  offset="0.8428" style="stop-color:#2C5345"/>
		<stop  offset="0.9118" style="stop-color:#1F493B"/>
		<stop  offset="0.9699" style="stop-color:#0D3A2D"/>
		<stop  offset="1" style="stop-color:#003023"/>
	</linearGradient>
	<path class="st1" d="M221.2,58c16.8-2.5,46.5-0.2,56.6,3.4l0,0c12.7,4.9,23.1,14.9,25.1,25.3c6.1,30.9-50.9,72.4-115.1,92.4
		c-64.3,20-132.2,16.2-138.3-14.7c-2.4-11.9,1.4-28.2,12.7-41.4c-12.7,14.7-18.8,29.7-16.2,43c6.8,34.5,70.4,46.1,142,23.9
		c71.6-22.3,124.2-70,117.4-104.4C302.9,73,293.3,62.7,277.8,58l0,0c-0.1,0-0.1,0-0.2-0.1l0,0c-7.6-2-15.7-2.8-24-2.8
		C243.1,55.1,232.3,56.3,221.2,58"/>
</g>
<rect x="368" y="76" class="st2" width="4" height="98"/>
<g>
	<g>
		
			<ellipse transform="matrix(0.9496 -0.3135 0.3135 0.9496 -14.9833 167.9625)" class="st3" cx="514.7" cy="130.6" rx="16.9" ry="10.5"/>
		<path class="st3" d="M568.5,171c9.2-7.9,16-17.6,18.7-28.7c9.4-42-32-97.6-81.7-84.3c-108.4,29.1-48.9,115.8-48.9,115.8
			c18.3,21.6,54,23.9,83.7,13.2c14,22.1,48.5,11.6,48.5,11.6C572.1,192.2,568.8,179.3,568.5,171z M518.3,158.6
			c-5.6,0.9-11,0.6-15.9-0.8c0,0-7.1,13.7-21.8,16.5c3.8-12.2,2-37.6,2-37.6c0-0.4,0-0.7,0-1.1c-1-14,11.3-27.3,28.1-30
			c17.5-2.8,33.4,6.7,35.4,21.3C548.3,141.6,535.8,155.8,518.3,158.6z M567.8,155.7c0,2.5-2.1,4.6-4.6,4.6h-8.3
			c-2.5,0-4.6-2.1-4.6-4.6V119c0-2.2,1.5-4,3.5-4.5c-1-16.1-18.3-28.9-39.5-28.9c-21.2,0-38.5,12.8-39.5,28.8
			c2.3,0.3,4.1,2.2,4.1,4.6v36.7c0,2.5-2.1,4.6-4.6,4.6h-8.3c-2.5,0-4.6-2.1-4.6-4.6v-3.2h-1.1c-1.7,0-3.1-1.4-3.1-3.1v-24.3
			c0-1.7,1.4-3.1,3.1-3.1h1.1V119c0-2.5,2.1-4.6,4.6-4.6h1.2c0.5-9.7,5.5-18.8,14.1-25.6c8.9-7,20.6-10.8,33.1-10.8
			c12.4,0,24.2,3.8,33.1,10.8c8.7,6.8,13.7,15.9,14.1,25.6h1.8c2.5,0,4.6,2.1,4.6,4.6v3.1h1.1c1.7,0,3.1,1.4,3.1,3.1v24.3
			c0,1.7-1.4,3.1-3.1,3.1h-1.1V155.7z"/>
	</g>
	<g>
		<g>
			<path class="st3" d="M612,155.9c0,1.6,0.2,3,0.7,4.2c0.5,1.1,1,2.1,1.8,2.8c0.7,0.7,1.6,1.2,2.6,1.6c1,0.3,2,0.5,3.1,0.5
				c1.1,0,2.1-0.2,3.1-0.6c1-0.4,1.8-1,2.6-1.7c0.7-0.8,1.3-1.7,1.8-2.8c0.4-1.1,0.6-2.4,0.6-3.9v-28.1c0-0.4,0.1-0.7,0.4-1
				c0.3-0.3,0.6-0.4,1.1-0.4h9.7c0.5,0,0.9,0.1,1.2,0.4c0.3,0.3,0.4,0.6,0.4,1v27.9c0,3.9-0.6,7.1-1.7,9.7c-1.1,2.6-2.7,4.7-4.6,6.3
				c-1.9,1.6-4.1,2.7-6.7,3.4c-2.5,0.7-5.2,1-8,1s-5.4-0.4-8-1.1c-2.5-0.7-4.8-1.9-6.7-3.5c-1.9-1.6-3.4-3.7-4.6-6.3
				c-1.1-2.6-1.7-5.8-1.7-9.6v-27.9c0-0.4,0.1-0.7,0.4-1c0.3-0.3,0.6-0.4,0.9-0.4h9.9c0.3,0,0.7,0.1,1,0.4c0.4,0.3,0.5,0.6,0.5,1
				V155.9z"/>
			<path class="st3" d="M645.2,134.1c0.3-0.2,0.6-0.4,0.9-0.5c0.3-0.1,0.6-0.1,0.9-0.1h5c0.4,0,0.7,0.1,1,0.2
				c0.3,0.1,0.5,0.3,0.7,0.6c0.2,0.2,0.4,0.5,0.5,0.8c0.1,0.3,0.2,0.6,0.3,1l0.7,2.9c0.3-0.7,0.9-1.4,1.6-2.1c0.7-0.7,1.7-1.4,2.7-2
				c1.1-0.6,2.4-1.1,3.8-1.5c1.4-0.4,3-0.6,4.8-0.6c2.5,0,4.8,0.5,6.7,1.5c2,1,3.6,2.3,5,4c1.4,1.7,2.4,3.6,3.1,5.9
				c0.7,2.2,1.1,4.6,1.1,7.2v21.7c0,0.8-0.2,1.5-0.5,1.9c-0.4,0.4-0.9,0.6-1.7,0.6h-7.6c-0.9,0-1.6-0.2-2-0.5
				c-0.4-0.3-0.5-0.9-0.5-1.9v-21.5c0-0.9-0.2-1.8-0.6-2.7c-0.4-0.8-1-1.6-1.7-2.2c-0.7-0.6-1.5-1.2-2.4-1.5
				c-0.9-0.4-1.8-0.6-2.7-0.6c-0.8,0-1.6,0.2-2.4,0.5c-0.8,0.4-1.6,0.8-2.3,1.5c-0.7,0.6-1.3,1.4-1.8,2.2c-0.5,0.8-0.7,1.8-0.8,2.8
				V173c0,0.4-0.1,0.7-0.2,1.1c-0.1,0.4-0.4,0.7-0.6,0.9c-0.3,0.2-0.6,0.3-0.8,0.4c-0.3,0.1-0.5,0.1-0.9,0.1h-7.5
				c-0.9,0-1.6-0.2-2-0.7c-0.4-0.5-0.6-1.1-0.6-1.9v-37c0-0.4,0.1-0.8,0.3-1.2c0.2-0.4,0.4-0.6,0.8-0.8L645.2,134.1z"/>
			<path class="st3" d="M702.7,127.6c0-0.1,0.1-0.3,0.2-0.4c0.1-0.2,0.3-0.3,0.4-0.4c0.2-0.1,0.4-0.2,0.6-0.3
				c0.2-0.1,0.4-0.1,0.6-0.1h8.5c0.4,0,0.7,0.1,1,0.3c0.3,0.2,0.5,0.4,0.6,0.6l0.8,1.9l17.4,44.8c0.2,0.4,0.1,0.8-0.1,1.1
				c-0.2,0.3-0.7,0.4-1.3,0.4h-9.5c-0.5,0-0.9-0.1-1.2-0.3c-0.3-0.2-0.5-0.5-0.6-0.9c-0.4-1.1-0.9-2.2-1.3-3.4s-0.8-2.2-1.3-3.4
				h-17.6c-0.4,1.1-0.8,2.2-1.3,3.4s-0.9,2.2-1.3,3.4c-0.3,0.8-0.8,1.2-1.7,1.2h-9.8c-0.4,0-0.8-0.1-1-0.3c-0.3-0.2-0.3-0.6-0.1-1
				L702.7,127.6z M708.7,141.8c-0.4,1.1-0.8,2.3-1.3,3.6c-0.4,1.3-0.9,2.6-1.3,3.9c-0.4,1.3-0.8,2.6-1.3,3.9s-0.9,2.5-1.3,3.6h10.1
				L708.7,141.8z"/>
			<path class="st3" d="M776.9,151c0,2.3-0.3,4.6-0.9,6.7c-0.6,2.1-1.4,4.1-2.5,5.9c-1.1,1.8-2.4,3.5-4,4.9
				c-1.5,1.5-3.2,2.7-5.1,3.8c-1.9,1-3.9,1.8-6,2.4c-2.2,0.6-4.4,0.8-6.7,0.8h-16.3c-0.4,0-0.7-0.1-1.1-0.3
				c-0.3-0.2-0.5-0.6-0.5-1.1v-46.2c0-0.5,0.1-0.8,0.4-1.1c0.3-0.3,0.6-0.4,1.1-0.4h16.3c2.3,0,4.5,0.3,6.7,0.9
				c2.1,0.6,4.2,1.4,6,2.4c1.9,1.1,3.6,2.3,5.1,3.8c1.5,1.5,2.9,3.1,4,5c1.1,1.8,1.9,3.8,2.5,5.9C776.6,146.4,776.9,148.6,776.9,151
				z M746.7,138.2v25.4h2.8c0.5,0,1,0,1.5,0c0.5,0,1-0.1,1.5-0.1c1.7-0.1,3.2-0.5,4.6-1.2c1.4-0.7,2.7-1.6,3.8-2.6
				c1.1-1.1,1.9-2.4,2.5-3.9c0.6-1.5,0.9-3.1,0.9-4.8c0-1.9-0.3-3.6-1-5.1c-0.7-1.6-1.6-2.9-2.8-4c-1.2-1.1-2.6-2-4.2-2.6
				c-1.6-0.6-3.3-0.9-5.1-0.9H746.7z"/>
			<path class="st3" d="M782.9,127.8c0-0.4,0.2-0.7,0.5-1s0.6-0.4,1.1-0.4H796c0.8,0,1.3,0.4,1.6,1.3l9,30l9.1-30
				c0.3-0.8,0.9-1.3,1.7-1.3h11.3c0.4,0,0.8,0.1,1.1,0.4c0.3,0.3,0.5,0.6,0.5,1c0.8,7.8,1.6,15.5,2.4,23.1
				c0.8,7.6,1.6,15.3,2.4,23.1v0.2c0,0.9-0.5,1.3-1.5,1.3h-9.4c-1,0-1.5-0.5-1.6-1.5l-2.9-25.6l-7.4,25.7c0,0.2-0.2,0.5-0.5,0.8
				c-0.3,0.3-0.5,0.5-0.8,0.5h-8.7c-0.3,0-0.5-0.1-0.8-0.4c-0.3-0.3-0.5-0.6-0.5-0.8l-7.4-25.7l-2.9,25.5c0,1-0.6,1.5-1.6,1.5h-9.4
				c-0.9,0-1.4-0.5-1.4-1.5L782.9,127.8z"/>
		</g>
		<g>
			<path class="st3" d="M599.2,85c0-0.4,0.1-0.6,0.3-0.9c0.2-0.2,0.5-0.3,0.8-0.3h16.4c1.2,0,2.3,0.2,3.3,0.5c1,0.3,2,0.8,2.9,1.3
				c0.9,0.6,1.7,1.3,2.4,2.1c0.7,0.8,1.3,1.7,1.8,2.6c0.5,0.9,0.9,1.9,1.1,2.9c0.3,1,0.4,2.1,0.4,3.1c0,1.5-0.3,3-0.8,4.5
				c-0.6,1.5-1.3,2.8-2.4,3.9c-1,1.1-2.3,2.1-3.7,2.8c-1.4,0.7-3,1.1-4.8,1.1h-7.8v12.2c0,0.7-0.4,1.1-1.2,1.1h-7.6
				c-0.3,0-0.6-0.1-0.8-0.3c-0.2-0.2-0.3-0.5-0.3-0.8V85z M618.5,96.3c0-0.5-0.1-1-0.3-1.5c-0.2-0.5-0.4-1-0.8-1.4
				c-0.3-0.4-0.8-0.7-1.2-1c-0.5-0.3-1-0.4-1.7-0.4h-5.4v8.6h5.4c0.6,0,1.2-0.1,1.7-0.4c0.5-0.2,0.9-0.6,1.2-1
				c0.3-0.4,0.6-0.8,0.8-1.4C618.4,97.4,618.5,96.8,618.5,96.3z"/>
			<path class="st3" d="M629.4,103c0-1.8,0.2-3.6,0.7-5.2c0.5-1.7,1.1-3.2,2-4.7c0.9-1.5,1.9-2.8,3.1-4c1.2-1.2,2.5-2.2,4-3.1
				c1.5-0.8,3-1.5,4.7-2c1.7-0.5,3.4-0.7,5.2-0.7c1.8,0,3.5,0.2,5.2,0.7c1.7,0.5,3.2,1.1,4.7,2c1.5,0.8,2.8,1.9,4,3.1
				c1.2,1.2,2.2,2.5,3.1,4c0.8,1.5,1.5,3,2,4.7s0.7,3.4,0.7,5.2c0,1.8-0.2,3.6-0.7,5.2s-1.1,3.2-2,4.7c-0.8,1.4-1.9,2.8-3.1,4
				c-1.2,1.2-2.5,2.2-4,3.1c-1.5,0.9-3,1.5-4.7,2c-1.7,0.5-3.4,0.7-5.2,0.7c-1.8,0-3.6-0.2-5.2-0.7c-1.7-0.5-3.2-1.1-4.7-2
				c-1.5-0.9-2.8-1.9-4-3.1c-1.2-1.2-2.2-2.5-3.1-4c-0.9-1.4-1.5-3-2-4.7C629.7,106.5,629.4,104.8,629.4,103z M639.4,102.9
				c0,1.4,0.2,2.7,0.7,4c0.5,1.2,1.2,2.3,2,3.2c0.9,0.9,1.9,1.6,3.1,2.2c1.2,0.5,2.5,0.8,3.9,0.8c1.4,0,2.7-0.3,3.9-0.8
				c1.2-0.5,2.2-1.2,3.1-2.2c0.9-0.9,1.5-2,2-3.2c0.5-1.2,0.7-2.6,0.7-4c0-1.4-0.2-2.7-0.7-4c-0.5-1.2-1.1-2.3-2-3.2
				c-0.9-0.9-1.9-1.7-3.1-2.2c-1.2-0.5-2.5-0.8-3.9-0.8c-1.4,0-2.7,0.3-3.9,0.8c-1.2,0.5-2.2,1.3-3.1,2.2c-0.9,0.9-1.5,2-2,3.2
				C639.6,100.2,639.4,101.5,639.4,102.9z"/>
			<path class="st3" d="M705.1,103c0,1.8-0.2,3.5-0.7,5.2c-0.5,1.6-1.1,3.2-2,4.6c-0.9,1.4-1.9,2.7-3.1,3.8c-1.2,1.1-2.5,2.1-4,2.9
				c-1.4,0.8-3,1.4-4.7,1.9s-3.4,0.7-5.2,0.7h-12.7c-0.3,0-0.6-0.1-0.8-0.2c-0.2-0.1-0.4-0.4-0.4-0.9V85c0-0.4,0.1-0.7,0.3-0.9
				c0.2-0.2,0.5-0.3,0.9-0.3h12.7c1.8,0,3.5,0.2,5.2,0.7c1.7,0.4,3.2,1.1,4.7,1.9c1.4,0.8,2.8,1.8,4,3c1.2,1.1,2.2,2.4,3.1,3.9
				c0.8,1.4,1.5,3,2,4.6C704.8,99.4,705.1,101.2,705.1,103z M681.6,93v19.7h2.2c0.4,0,0.8,0,1.2,0c0.4,0,0.8-0.1,1.1-0.1
				c1.3-0.1,2.5-0.4,3.6-0.9c1.1-0.5,2.1-1.2,2.9-2.1c0.8-0.8,1.5-1.8,2-3c0.5-1.1,0.7-2.4,0.7-3.7c0-1.4-0.3-2.8-0.8-4
				c-0.5-1.2-1.3-2.3-2.2-3.1c-0.9-0.9-2-1.6-3.2-2.1c-1.2-0.5-2.6-0.7-4-0.7H681.6z"/>
			<path class="st3" d="M737.9,86.6c0.3,0.2,0.5,0.4,0.6,0.7c0.1,0.3,0.1,0.6-0.1,1l-4.3,6.2c-0.2,0.3-0.4,0.5-0.6,0.5
				c-0.2,0-0.5,0-0.8-0.2c-0.8-0.6-1.8-1.1-2.8-1.5c-1-0.3-2.1-0.5-3.2-0.5c-1.4,0-2.7,0.3-3.9,0.8c-1.2,0.5-2.2,1.3-3.1,2.2
				c-0.9,0.9-1.5,2-2,3.2c-0.5,1.2-0.7,2.6-0.7,4c0,1.4,0.2,2.7,0.7,3.9s1.1,2.3,2,3.2c0.9,0.9,1.9,1.6,3.1,2.2
				c1.2,0.5,2.5,0.8,3.9,0.8c1.1,0,2.2-0.2,3.2-0.5c1-0.4,2-0.8,2.8-1.5c0.3-0.2,0.6-0.3,0.8-0.2c0.2,0,0.4,0.2,0.6,0.5l4.4,6.3
				c0.2,0.4,0.2,0.7,0.1,1c-0.1,0.3-0.4,0.5-0.6,0.6c-1.6,1.1-3.3,1.9-5.2,2.5c-1.9,0.6-3.8,0.9-5.9,0.9c-1.8,0-3.6-0.2-5.2-0.7
				c-1.7-0.5-3.2-1.1-4.7-2c-1.5-0.9-2.8-1.9-4-3.1c-1.2-1.2-2.2-2.5-3.1-4c-0.9-1.4-1.5-3-2-4.7c-0.5-1.7-0.7-3.4-0.7-5.2
				c0-1.8,0.2-3.6,0.7-5.2c0.5-1.7,1.1-3.2,2-4.7c0.9-1.5,1.9-2.8,3.1-4c1.2-1.2,2.5-2.2,4-3.1c1.5-0.8,3-1.5,4.7-2
				c1.7-0.5,3.4-0.7,5.2-0.7c2.1,0,4,0.3,5.8,0.9C734.6,84.7,736.3,85.5,737.9,86.6z"/>
			<path class="st3" d="M752.9,84.9c0-0.1,0.1-0.2,0.2-0.3c0.1-0.1,0.2-0.2,0.3-0.3c0.1-0.1,0.3-0.2,0.4-0.2
				c0.2-0.1,0.3-0.1,0.4-0.1h6.6c0.3,0,0.5,0.1,0.7,0.3c0.2,0.2,0.4,0.3,0.5,0.5l0.6,1.5l13.5,34.8c0.1,0.3,0.1,0.6-0.1,0.8
				c-0.2,0.2-0.5,0.3-1,0.3h-7.4c-0.4,0-0.7-0.1-0.9-0.2c-0.2-0.1-0.4-0.4-0.5-0.7c-0.3-0.9-0.7-1.7-1-2.6c-0.3-0.9-0.7-1.7-1-2.6
				h-13.6c-0.3,0.9-0.7,1.7-1,2.6c-0.3,0.9-0.7,1.7-1,2.6c-0.2,0.6-0.7,1-1.3,1h-7.6c-0.3,0-0.6-0.1-0.8-0.3
				c-0.2-0.2-0.3-0.4-0.1-0.8L752.9,84.9z M757.6,95.8c-0.3,0.9-0.7,1.8-1,2.8c-0.3,1-0.7,2-1,3.1c-0.3,1-0.7,2-1,3
				c-0.3,1-0.7,1.9-1,2.8h7.9L757.6,95.8z"/>
			<path class="st3" d="M781.5,109.7c0.3,0.2,0.7,0.6,1.1,1c0.5,0.4,1,0.8,1.6,1.2c0.9,0.6,1.7,1,2.6,1.4c0.9,0.3,1.8,0.5,2.7,0.5
				c0.9,0,1.6-0.1,2.2-0.3c0.6-0.2,1.1-0.5,1.4-0.8c0.3-0.3,0.6-0.7,0.7-1.1c0.1-0.4,0.2-0.9,0.2-1.4c0-0.5-0.2-1-0.6-1.4
				c-0.4-0.4-0.9-0.8-1.5-1.1c-0.6-0.3-1.2-0.6-1.8-0.8c-0.6-0.2-1.2-0.4-1.6-0.6c-2.1-0.7-3.9-1.5-5.4-2.3
				c-1.5-0.8-2.8-1.8-3.9-2.8c-1-1-1.8-2.1-2.3-3.4c-0.5-1.2-0.8-2.6-0.8-4.1c0-1.6,0.3-3,1-4.3c0.6-1.3,1.6-2.4,2.7-3.3
				c1.2-0.9,2.6-1.6,4.3-2.1c1.7-0.5,3.6-0.8,5.6-0.8c1.6,0,3.1,0.2,4.5,0.5c1.4,0.4,2.8,0.9,4.2,1.7c0.6,0.3,1.1,0.7,1.7,1.1
				c0.5,0.4,1,0.7,1.4,1.1c0.4,0.3,0.7,0.7,0.9,1c0.2,0.3,0.3,0.6,0.3,0.8s-0.1,0.4-0.2,0.6c-0.1,0.2-0.3,0.4-0.5,0.6l-3.9,4.2
				c-0.3,0.3-0.6,0.4-0.9,0.4c-0.2,0-0.5-0.1-0.7-0.2c-0.2-0.1-0.4-0.3-0.7-0.5l-0.2-0.2c-0.3-0.3-0.7-0.6-1.1-0.9
				c-0.4-0.3-0.9-0.6-1.3-0.8c-0.5-0.2-1-0.5-1.5-0.6c-0.5-0.2-1.1-0.2-1.6-0.2c-0.6,0-1.1,0-1.6,0.1c-0.5,0.1-0.9,0.2-1.3,0.4
				c-0.4,0.2-0.7,0.5-0.9,0.8c-0.2,0.3-0.3,0.7-0.3,1.2c0,0.5,0.1,0.9,0.4,1.2c0.2,0.4,0.6,0.7,1.1,1c0.5,0.3,1.1,0.6,1.8,0.8
				c0.7,0.3,1.5,0.6,2.5,0.9c1.8,0.6,3.5,1.2,5,1.9c1.5,0.7,2.9,1.4,4,2.3c1.1,0.9,2,2,2.6,3.2c0.6,1.2,0.9,2.8,0.9,4.5
				c0,1.9-0.4,3.6-1.2,5.1c-0.8,1.5-1.8,2.8-3.2,3.9c-1.3,1.1-2.9,1.9-4.7,2.5c-1.8,0.6-3.8,0.9-5.9,0.9c-2,0-3.9-0.4-5.8-1.1
				c-1.9-0.7-3.7-1.6-5.3-2.8c-0.7-0.5-1.3-1-1.7-1.5c-0.5-0.5-0.8-0.9-1.1-1.2l-0.1-0.1c0,0,0-0.1-0.1-0.1c0,0,0,0-0.1,0
				c0,0,0-0.1-0.1-0.1c0,0,0,0-0.1,0c-0.4-0.4-0.6-0.8-0.6-1c0-0.3,0.2-0.6,0.6-1l4.4-4.2c0.4-0.3,0.7-0.4,0.9-0.4
				c0.2,0,0.3,0.1,0.5,0.2C781.1,109.3,781.3,109.5,781.5,109.7z"/>
			<path class="st3" d="M804.9,85c0-0.3,0.1-0.6,0.3-0.8c0.2-0.2,0.5-0.3,0.9-0.3h27.6c0.3,0,0.6,0.1,0.8,0.3
				c0.2,0.2,0.4,0.5,0.4,0.8v6.4c0,0.3-0.1,0.6-0.3,0.9c-0.2,0.3-0.5,0.4-0.9,0.4h-8.9v28.1c0,0.3-0.1,0.6-0.3,0.8
				c-0.2,0.2-0.5,0.4-0.9,0.4h-7.5c-0.3,0-0.6-0.1-0.8-0.3c-0.3-0.2-0.4-0.5-0.4-0.9V92.7h-8.8c-0.3,0-0.6-0.1-0.9-0.3
				c-0.2-0.2-0.3-0.5-0.3-1V85z"/>
			<path class="st3" d="M646.6,71.7c0.1-0.4,0.3-0.7,0.6-0.9c0.3-0.2,0.6-0.3,0.9-0.3h6.9c0.3,0,0.5,0.1,0.6,0.2s0.2,0.2,0.3,0.4
				c0,0.2,0,0.3,0,0.6c0,0.2-0.1,0.4-0.2,0.6l-2.6,5.8c-0.2,0.4-0.4,0.7-0.6,0.9c-0.2,0.2-0.5,0.3-0.8,0.3h-5.9
				c-0.3,0-0.5-0.1-0.6-0.2c-0.1-0.1-0.1-0.3-0.1-0.5c0-0.2,0-0.4,0.1-0.6c0.1-0.2,0.1-0.4,0.1-0.6L646.6,71.7z"/>
		</g>
	</g>
</g>
</svg>
