<?xml version="1.0" standalone="no"?>
<!DOCTYPE svg PUBLIC "-//W3C//DTD SVG 1.1//EN" "http://www.w3.org/Graphics/SVG/1.1/DTD/svg11.dtd">
<svg width="100%" height="100%" viewBox="0 0 800 400" version="1.1" xmlns="http://www.w3.org/2000/svg" xmlns:xlink="http://www.w3.org/1999/xlink" xml:space="preserve" style="fill-rule:evenodd;clip-rule:evenodd;stroke-linecap:round;stroke-linejoin:round;stroke-miterlimit:1.41421;">
    <g id="Layer1">
        <path d="M111.582,170.366L87,170.366L87,291.909L97.9252,308.296L170.305,308.296L179.864,285.08L114.313,285.08L111.582,280.983L111.582,170.366Z" style="fill:none;stroke-width:2px;stroke:white;"/>
        <path d="M224.931,305.565L254.975,170.366L285.019,170.366L315.064,305.565L293.213,305.565L283.654,265.961L263.169,265.961L272.729,241.38L278.191,241.38L272.729,220.895L265.9,220.895L248.147,305.565L224.931,305.565Z" style="fill:none;stroke-width:2px;stroke:white;"/>
        <path d="M422.95,169L358.765,169L358.765,305.565L380.615,305.565L380.615,193.582L407.928,193.582L421.584,219.529L410.659,242.745L399.734,242.745L390.175,264.596L424.316,264.596L446.166,218.163L422.95,169Z" style="fill:none;stroke-width:2px;stroke:white;"/>
        <path d="M489.867,169L489.867,291.909L498.061,306.931L559.515,306.931L580,231.82L556.784,169L489.867,169Z" style="fill:none;stroke-width:2px;stroke:white;"/>
        <path d="M513.083,193.582L539.03,193.582L556.784,241.38L543.127,280.983L514.449,280.983L513.083,193.582Z" style="fill:none;stroke-width:2px;stroke:white;"/>
    </g>
</svg>
