<?xml version="1.0" encoding="utf-8"?>
<!-- Generator: Adobe Illustrator 25.2.3, SVG Export Plug-In . SVG Version: 6.00 Build 0)  -->
<svg version="1.1" id="Layer_1" xmlns="http://www.w3.org/2000/svg" xmlns:xlink="http://www.w3.org/1999/xlink" x="0px" y="0px"
	 viewBox="0 0 291 213" style="enable-background:new 0 0 291 213;" xml:space="preserve">
<style type="text/css">
	.st0{fill:#FFFFFF;stroke:#000000;stroke-miterlimit:10;}
	.st1{fill:none;stroke:#F1F1F1;stroke-miterlimit:10;}
</style>
<image style="overflow:visible;" width="922" height="640" xlink:href="../../Screen Shot 2021-05-11 at 12.09.25.png"  transform="matrix(0.5 0 0 0.5 657.5 -280)">
</image>
<polygon class="st0" points="1480.5,53.5 1480.5,35.3 1480.5,25 1499,25 1641.5,25 1641.5,184.5 1613,184.5 1613,73.5 1505,184.5 
	1454.9,184.5 1454.5,177 1587.5,53.5 "/>
<image style="overflow:visible;" width="1142" height="880" xlink:href="../../Screen Shot 2021-05-11 at 12.09.18.png"  transform="matrix(0.2067 0 0 0.2067 844 56)">
</image>
<rect x="1397.5" y="25.5" class="st0" width="70" height="5"/>
<rect x="1397.5" y="43.5" class="st0" width="19" height="4"/>
<polygon class="st1" points="99.1,56.1 99.1,38 99.1,27.6 117.6,27.6 260.1,27.6 260.1,187.1 231.6,187.1 231.6,76.1 123.6,187.1 
	73.5,187.2 73.1,179.6 206.1,56.1 "/>
<rect x="16.1" y="28.1" class="st1" width="70" height="5"/>
<rect x="16.1" y="46.1" class="st1" width="19" height="4"/>
</svg>
